<?xml version="1.0" encoding="UTF-8" standalone="no"?>
<svg
   xmlns:dc="http://purl.org/dc/elements/1.1/"
   xmlns:cc="http://creativecommons.org/ns#"
   xmlns:rdf="http://www.w3.org/1999/02/22-rdf-syntax-ns#"
   xmlns:svg="http://www.w3.org/2000/svg"
   xmlns="http://www.w3.org/2000/svg"
   xmlns:sodipodi="http://sodipodi.sourceforge.net/DTD/sodipodi-0.dtd"
   xmlns:inkscape="http://www.inkscape.org/namespaces/inkscape"
   width="31.3472in"
   height="8.08333in"
   viewBox="0 0 2257 582"
   version="1.1"
   id="svg20"
   sodipodi:docname="a.svg"
   inkscape:version="0.92.1 r15371">
  <metadata
     id="metadata26">
    <rdf:RDF>
      <cc:Work
         rdf:about="">
        <dc:format>image/svg+xml</dc:format>
        <dc:type
           rdf:resource="http://purl.org/dc/dcmitype/StillImage" />
        <dc:title></dc:title>
      </cc:Work>
    </rdf:RDF>
  </metadata>
  <defs
     id="defs24" />
  <sodipodi:namedview
     pagecolor="#ffffff"
     bordercolor="#666666"
     borderopacity="1"
     objecttolerance="10"
     gridtolerance="10"
     guidetolerance="10"
     inkscape:pageopacity="0"
     inkscape:pageshadow="2"
     inkscape:window-width="1280"
     inkscape:window-height="737"
     id="namedview22"
     showgrid="false"
     inkscape:zoom="0.3838062"
     inkscape:cx="844.63102"
     inkscape:cy="283.78058"
     inkscape:window-x="-8"
     inkscape:window-y="-8"
     inkscape:window-maximized="1"
     inkscape:current-layer="svg20" />
  <path
     id="Blueprint"
     d="M 184.5,97 H 38 V 464 H 162.75 M 160.5,243 H 112 v -84 h 42.5 m 26.22,243 H 112 v -97 h 59.94 M 476,464 V 97 H 406 V 464 Z M 618,320.56 V 198 h -70 v 168.92 m 177,57.33 V 464 h 65 V 198 H 720 V 310.52 M 1084,392 1014,380 M 913,351 h 176 m -70,-43 H 914.25 M 1212,237 v -39 h -66 v 368 h 70 V 432.25 M 1606.5,266.5 1628,205.25 m -106,30.5 V 198 h -65 v 266 h 70 V 381.8 M 1728,162 V 97 h -70 v 65 z m 0,302 V 198 h -70 V 464 Z M 1972,328.34 V 464 h 70 V 298.7 M 1865,237 v -39 h -65 v 266 h 70 V 343.61 m 371,116.94 -5.5,-54.3 M 2188,362.19 V 254 h 48 v -56 h -48 v -94 l -70,41 v 53 h -32 v 56 h 32 v 116.56"
     inkscape:connector-curvature="0"
     style="fill:none;stroke:#000000;stroke-width:1"
     sodipodi:nodetypes="cccccccccsccccccccscccccccccccccccccccccccccccccccccccccccscccccccccccscccccccccc" />
</svg>
