<?xml version="1.0" encoding="UTF-8" standalone="no"?>
<!DOCTYPE svg PUBLIC "-//W3C//DTD SVG 20010904//EN"
              "http://www.w3.org/TR/2001/REC-SVG-20010904/DTD/svg10.dtd">

<svg xmlns="http://www.w3.org/2000/svg"
     width="31.3472in" height="8.08333in"
     viewBox="0 0 2257 582">
  <path id="Blueprint"
        fill="none" stroke="black" stroke-width="1"
        d="M 38.00,464.00
           C 38.00,464.00 162.75,464.00 162.75,464.00
             209.91,463.67 239.66,462.84 252.00,461.50
             271.66,459.34 288.21,453.55 301.63,444.14
             315.04,434.73 325.63,422.17 333.38,406.44
             341.13,390.70 345.00,374.50 345.00,357.84
             345.00,336.70 339.04,318.30 327.11,302.64
             315.19,286.98 298.13,275.91 275.94,269.42
             291.63,262.23 304.07,251.43 313.23,237.05
             322.41,222.66 327.00,206.85 327.00,189.61
             327.00,173.71 323.25,159.37 315.75,146.58
             308.25,133.78 298.88,123.53 287.63,115.83
             276.38,108.13 263.63,103.07 249.38,100.64
             235.13,98.21 213.50,97.00 184.50,97.00
             184.50,97.00 38.00,97.00 38.00,97.00
             38.00,97.00 38.00,464.00 38.00,464.00 Z
           M 154.50,159.00
           C 189.33,159.00 210.41,159.41 217.75,160.23
             230.08,161.73 239.38,165.98 245.63,173.00
             251.88,180.02 255.00,189.15 255.00,200.38
             255.00,212.11 251.38,221.56 244.13,228.75
             236.88,235.94 226.91,240.28 214.25,241.77
             207.25,242.59 189.33,243.00 160.50,243.00
             160.50,243.00 112.00,243.00 112.00,243.00
             112.00,243.00 112.00,159.00 112.00,159.00
             112.00,159.00 154.50,159.00 154.50,159.00 Z
           M 171.94,305.00
           C 205.72,305.00 227.66,306.73 237.78,310.20
             247.89,313.66 255.63,319.19 260.97,326.78
             266.32,334.37 269.00,343.60 269.00,354.48
             269.00,367.36 265.53,377.63 258.59,385.30
             251.66,392.96 242.66,397.79 231.63,399.77
             224.44,401.26 207.47,402.00 180.72,402.00
             180.72,402.00 112.00,402.00 112.00,402.00
             112.00,402.00 112.00,305.00 112.00,305.00
             112.00,305.00 171.94,305.00 171.94,305.00 Z
           M 476.00,464.00
           C 476.00,464.00 476.00,97.00 476.00,97.00
             476.00,97.00 406.00,97.00 406.00,97.00
             406.00,97.00 406.00,464.00 406.00,464.00
             406.00,464.00 476.00,464.00 476.00,464.00 Z
           M 790.00,464.00
           C 790.00,464.00 790.00,198.00 790.00,198.00
             790.00,198.00 720.00,198.00 720.00,198.00
             720.00,198.00 720.00,310.52 720.00,310.52
             720.00,348.70 718.23,372.68 714.69,382.47
             711.16,392.26 704.59,400.46 695.00,407.08
             685.41,413.70 674.55,417.00 662.44,417.00
             651.83,417.00 643.08,414.53 636.17,409.59
             629.27,404.66 624.52,397.96 621.91,389.50
             619.30,381.04 618.00,358.06 618.00,320.56
             618.00,320.56 618.00,198.00 618.00,198.00
             618.00,198.00 548.00,198.00 548.00,198.00
             548.00,198.00 548.00,366.92 548.00,366.92
             548.00,392.07 551.18,411.77 557.53,426.02
             563.89,440.26 574.19,451.31 588.42,459.19
             602.65,467.06 618.72,471.00 636.63,471.00
             654.20,471.00 670.89,466.75 686.70,458.25
             702.52,449.75 715.29,438.42 725.00,424.25
             725.00,424.25 725.00,464.00 725.00,464.00
             725.00,464.00 790.00,464.00 790.00,464.00 Z
           M 997.20,408.23
           C 989.80,414.08 980.66,417.00 969.80,417.00
             953.83,417.00 940.49,411.21 929.78,399.63
             919.08,388.04 913.49,371.84 913.00,351.00
             913.00,351.00 1089.00,351.00 1089.00,351.00
             1090.00,297.17 1079.08,257.21 1056.25,231.13
             1033.41,205.04 1002.25,192.00 962.75,192.00
             927.58,192.00 898.50,204.53 875.50,229.58
             852.50,254.63 841.00,289.28 841.00,333.52
             841.00,370.55 849.70,401.21 867.11,425.50
             889.17,455.84 923.16,471.00 969.09,471.00
             998.11,471.00 1022.28,464.27 1041.59,450.81
             1060.91,437.36 1075.04,417.75 1084.00,392.00
             1084.00,392.00 1014.00,380.00 1014.00,380.00
             1010.21,392.98 1004.61,402.39 997.20,408.23 Z
           M 914.25,308.00
           C 914.08,288.91 918.99,273.80 928.97,262.69
             938.94,251.56 951.57,246.00 966.88,246.00
             981.18,246.00 993.31,251.27 1003.28,261.81
             1013.26,272.36 1018.50,287.75 1019.00,308.00
             1019.00,308.00 914.25,308.00 914.25,308.00 Z
           M 1146.00,566.00
           C 1146.00,566.00 1216.00,566.00 1216.00,566.00
             1216.00,566.00 1216.00,432.25 1216.00,432.25
             1229.11,446.42 1241.60,456.42 1253.47,462.25
             1265.34,468.08 1278.58,471.00 1293.19,471.00
             1323.91,471.00 1350.05,458.64 1371.63,433.92
             1393.21,409.20 1404.00,374.56 1404.00,329.98
             1404.00,286.59 1393.33,252.75 1372.00,228.45
             1350.66,204.15 1324.70,192.00 1294.11,192.00
             1276.58,192.00 1260.62,196.17 1246.23,204.50
             1231.85,212.84 1220.44,223.67 1212.00,237.00
             1212.00,237.00 1212.00,198.00 1212.00,198.00
             1212.00,198.00 1146.00,198.00 1146.00,198.00
             1146.00,198.00 1146.00,566.00 1146.00,566.00 Z
           M 1231.86,267.97
           C 1243.10,254.66 1257.23,248.00 1274.25,248.00
             1290.60,248.00 1304.32,254.78 1315.39,268.34
             1326.46,281.91 1332.00,302.67 1332.00,330.63
             1332.00,360.59 1326.63,382.15 1315.89,395.30
             1305.15,408.43 1291.68,415.00 1275.48,415.00
             1258.63,415.00 1244.33,407.84 1232.59,393.53
             1220.86,379.22 1215.00,357.08 1215.00,327.11
             1215.00,300.98 1220.62,281.27 1231.86,267.97 Z
           M 1527.00,381.80
           C 1527.00,336.53 1528.94,306.79 1532.83,292.59
             1536.72,278.39 1542.07,268.57 1548.86,263.14
             1555.65,257.71 1563.93,255.00 1573.70,255.00
             1583.80,255.00 1594.74,258.84 1606.50,266.50
             1606.50,266.50 1628.00,205.25 1628.00,205.25
             1613.27,196.42 1597.96,192.00 1582.08,192.00
             1570.82,192.00 1560.76,194.84 1551.91,200.50
             1543.05,206.17 1533.08,217.92 1522.00,235.75
             1522.00,235.75 1522.00,198.00 1522.00,198.00
             1522.00,198.00 1457.00,198.00 1457.00,198.00
             1457.00,198.00 1457.00,464.00 1457.00,464.00
             1457.00,464.00 1527.00,464.00 1527.00,464.00
             1527.00,464.00 1527.00,381.80 1527.00,381.80 Z
           M 1728.00,162.00
           C 1728.00,162.00 1728.00,97.00 1728.00,97.00
             1728.00,97.00 1658.00,97.00 1658.00,97.00
             1658.00,97.00 1658.00,162.00 1658.00,162.00
             1658.00,162.00 1728.00,162.00 1728.00,162.00 Z
           M 1728.00,464.00
           C 1728.00,464.00 1728.00,198.00 1728.00,198.00
             1728.00,198.00 1658.00,198.00 1658.00,198.00
             1658.00,198.00 1658.00,464.00 1658.00,464.00
             1658.00,464.00 1728.00,464.00 1728.00,464.00 Z
           M 2042.00,298.70
           C 2042.00,278.16 2040.70,262.38 2038.11,251.36
             2035.52,240.34 2030.94,230.49 2024.34,221.81
             2017.76,213.13 2008.04,205.98 1995.19,200.39
             1982.33,194.80 1968.14,192.00 1952.63,192.00
             1917.41,192.00 1888.20,207.00 1865.00,237.00
             1865.00,237.00 1865.00,198.00 1865.00,198.00
             1865.00,198.00 1800.00,198.00 1800.00,198.00
             1800.00,198.00 1800.00,464.00 1800.00,464.00
             1800.00,464.00 1870.00,464.00 1870.00,464.00
             1870.00,464.00 1870.00,343.61 1870.00,343.61
             1870.00,313.91 1871.80,293.56 1875.39,282.55
             1878.99,271.53 1885.66,262.68 1895.38,256.02
             1905.09,249.34 1916.06,246.00 1928.28,246.00
             1937.83,246.00 1946.00,248.34 1952.78,253.02
             1959.56,257.68 1964.46,264.23 1967.47,272.66
             1970.49,281.09 1972.00,299.65 1972.00,328.34
             1972.00,328.34 1972.00,464.00 1972.00,464.00
             1972.00,464.00 2042.00,464.00 2042.00,464.00
             2042.00,464.00 2042.00,298.70 2042.00,298.70 Z
           M 2188.00,198.00
           C 2188.00,198.00 2188.00,104.00 2188.00,104.00
             2188.00,104.00 2118.00,145.00 2118.00,145.00
             2118.00,145.00 2118.00,198.00 2118.00,198.00
             2118.00,198.00 2086.00,198.00 2086.00,198.00
             2086.00,198.00 2086.00,254.00 2086.00,254.00
             2086.00,254.00 2118.00,254.00 2118.00,254.00
             2118.00,254.00 2118.00,370.56 2118.00,370.56
             2118.00,395.56 2118.74,412.18 2120.23,420.41
             2122.05,431.98 2125.30,441.17 2130.00,447.97
             2134.71,454.76 2142.09,460.30 2152.16,464.58
             2162.22,468.86 2173.52,471.00 2186.06,471.00
             2206.52,471.00 2224.83,467.52 2241.00,460.55
             2241.00,460.55 2235.50,406.25 2235.50,406.25
             2223.23,410.75 2213.86,413.00 2207.39,413.00
             2202.75,413.00 2198.82,411.82 2195.58,409.47
             2192.35,407.11 2190.27,404.11 2189.36,400.48
             2188.45,396.86 2188.00,384.09 2188.00,362.19
             2188.00,362.19 2188.00,254.00 2188.00,254.00
             2188.00,254.00 2236.00,254.00 2236.00,254.00
             2236.00,254.00 2236.00,198.00 2236.00,198.00
             2236.00,198.00 2188.00,198.00 2188.00,198.00 Z" />
</svg>
